<svg width="50" height="50" viewBox="0 0 50 50" fill="none" xmlns="http://www.w3.org/2000/svg">
<path d="M12.4529 12.4529C19.3305 5.57537 30.4812 5.57537 37.3588 12.4529V12.4529C44.2364 19.3305 44.2364 30.4812 37.3588 37.3588L26.4625 48.2551C25.6028 49.1148 24.2089 49.1148 23.3493 48.2551L1.55662 26.4625C0.696927 25.6028 0.696924 24.2089 1.55662 23.3492L12.4529 12.4529Z" fill="#0A500A"/>
<path d="M14.1638 23.195C14.7953 23.5906 23.364 16.1913 23.5033 16.3306C23.6708 16.4981 22.6618 17.6229 22.5931 17.7358C21.9051 18.8595 21.3919 20.4242 21.7634 21.5354C22.2134 22.8806 26.9602 21.2982 28.0353 20.7087C28.0637 20.6931 29.3329 19.8557 29.3477 20.0151C29.4928 21.5907 24.3281 26.1119 27.7822 28.6345C29.855 30.1485 35.1097 26.4172 35.2427 26.9905C35.2908 27.1968 33.0861 28.9085 32.9587 29.0271C30.6443 31.1788 28.7224 33.6342 26.5085 35.8481C23.4164 31.8121 19.9918 27.9347 15.7829 25.1226" stroke="white" stroke-opacity="0.9" stroke-width="1.81535" stroke-linecap="round" stroke-linejoin="round"/>
</svg>
