<svg width="38" height="39" viewBox="0 0 38 39" fill="currentColor" xmlns="http://www.w3.org/2000/svg">
<path d="M31.5 0.75H6.5C4.8424 0.75 3.25268 1.40848 2.08058 2.58058C0.90848 3.75268 0.25 5.3424 0.25 7V32C0.25 33.6576 0.90848 35.2473 2.08058 36.4194C3.25268 37.5915 4.8424 38.25 6.5 38.25H31.5C33.1576 38.25 34.7473 37.5915 35.9194 36.4194C37.0915 35.2473 37.75 33.6576 37.75 32V7C37.75 5.3424 37.0915 3.75268 35.9194 2.58058C34.7473 1.40848 33.1576 0.75 31.5 0.75ZM34.625 32C34.625 32.8288 34.2958 33.6237 33.7097 34.2097C33.1237 34.7958 32.3288 35.125 31.5 35.125H6.5C5.6712 35.125 4.87634 34.7958 4.29029 34.2097C3.70424 33.6237 3.375 32.8288 3.375 32V7C3.375 6.1712 3.70424 5.37634 4.29029 4.79029C4.87634 4.20424 5.6712 3.875 6.5 3.875H31.5C32.3288 3.875 33.1237 4.20424 33.7097 4.79029C34.2958 5.37634 34.625 6.1712 34.625 7V32ZM15.875 14.0312C15.875 14.4948 15.7375 14.9479 15.48 15.3334C15.2225 15.7188 14.8564 16.0192 14.4282 16.1966C13.9999 16.374 13.5286 16.4204 13.074 16.33C12.6194 16.2395 12.2017 16.0163 11.874 15.6885C11.5462 15.3608 11.323 14.9431 11.2325 14.4885C11.1421 14.0339 11.1885 13.5626 11.3659 13.1343C11.5433 12.7061 11.8437 12.34 12.2291 12.0825C12.6146 11.825 13.0677 11.6875 13.5312 11.6875C14.1529 11.6875 14.749 11.9344 15.1885 12.374C15.6281 12.8135 15.875 13.4096 15.875 14.0312ZM26.8125 14.0312C26.8125 14.4948 26.675 14.9479 26.4175 15.3334C26.16 15.7188 25.7939 16.0192 25.3657 16.1966C24.9374 16.374 24.4662 16.4204 24.0115 16.33C23.5569 16.2395 23.1392 16.0163 22.8115 15.6885C22.4837 15.3608 22.2605 14.9431 22.17 14.4885C22.0796 14.0339 22.126 13.5626 22.3034 13.1343C22.4808 12.7061 22.7812 12.34 23.1666 12.0825C23.5521 11.825 24.0052 11.6875 24.4688 11.6875C25.0904 11.6875 25.6865 11.9344 26.126 12.374C26.5656 12.8135 26.8125 13.4096 26.8125 14.0312ZM15.875 24.9688C15.875 25.4323 15.7375 25.8854 15.48 26.2709C15.2225 26.6563 14.8564 26.9567 14.4282 27.1341C13.9999 27.3115 13.5286 27.3579 13.074 27.2675C12.6194 27.177 12.2017 26.9538 11.874 26.626C11.5462 26.2983 11.323 25.8806 11.2325 25.426C11.1421 24.9713 11.1885 24.5001 11.3659 24.0718C11.5433 23.6436 11.8437 23.2775 12.2291 23.02C12.6146 22.7625 13.0677 22.625 13.5312 22.625C14.1529 22.625 14.749 22.8719 15.1885 23.3115C15.6281 23.751 15.875 24.3471 15.875 24.9688ZM26.8125 24.9688C26.8125 25.4323 26.675 25.8854 26.4175 26.2709C26.16 26.6563 25.7939 26.9567 25.3657 27.1341C24.9374 27.3115 24.4662 27.3579 24.0115 27.2675C23.5569 27.177 23.1392 26.9538 22.8115 26.626C22.4837 26.2983 22.2605 25.8806 22.17 25.426C22.0796 24.9713 22.126 24.5001 22.3034 24.0718C22.4808 23.6436 22.7812 23.2775 23.1666 23.02C23.5521 22.7625 24.0052 22.625 24.4688 22.625C25.0904 22.625 25.6865 22.8719 26.126 23.3115C26.5656 23.751 26.8125 24.3471 26.8125 24.9688Z" fill="currentColor"/>
</svg>
