<svg width="29" height="40" viewBox="0 0 29 40" fill="none" xmlns="http://www.w3.org/2000/svg">
<path d="M28.5 14.2308C28.5 16.0735 27.64 18.5783 26.2851 21.3535C24.9392 24.1101 23.1399 27.0652 21.3335 29.7861C19.5281 32.5052 17.7219 34.9811 16.3665 36.7777C15.689 37.6757 15.1245 38.4035 14.7298 38.9063C14.6452 39.0141 14.5684 39.1115 14.5 39.198C14.4316 39.1115 14.3548 39.0141 14.2702 38.9063C13.8755 38.4035 13.311 37.6757 12.6335 36.7777C11.2781 34.9811 9.47187 32.5052 7.66655 29.7861C5.86005 27.0652 4.06077 24.1101 2.71493 21.3535C1.35999 18.5783 0.5 16.0735 0.5 14.2308C0.5 6.65627 6.75914 0.5 14.5 0.5C22.2409 0.5 28.5 6.65627 28.5 14.2308Z" fill="#99140B" stroke="#EFEFEF"/>
</svg>
