<svg width="88" height="88" viewBox="0 0 88 88" fill="none" xmlns="http://www.w3.org/2000/svg">
<g filter="url(#filter0_d_357_613)">
<rect x="11.2" y="11.2" width="65.6" height="65.6" rx="32.8" stroke="url(#paint0_linear_357_613)" stroke-width="1.6"/>
<circle cx="44" cy="44" r="27.2" fill="#121212" stroke="url(#paint1_linear_357_613)" stroke-width="1.6"/>
</g>
<path d="M45.5 50.5C45.5 50.7967 45.412 51.0867 45.2472 51.3334C45.0824 51.58 44.8481 51.7723 44.574 51.8858C44.2999 51.9993 43.9983 52.0291 43.7074 51.9712C43.4164 51.9133 43.1491 51.7704 42.9393 51.5607C42.7296 51.3509 42.5867 51.0836 42.5288 50.7926C42.471 50.5017 42.5007 50.2001 42.6142 49.926C42.7277 49.6519 42.92 49.4176 43.1667 49.2528C43.4133 49.088 43.7033 49 44 49C44.3978 49 44.7794 49.158 45.0607 49.4393C45.342 49.7206 45.5 50.1022 45.5 50.5ZM44 37C41.2425 37 39 39.0188 39 41.5V42C39 42.2652 39.1054 42.5196 39.2929 42.7071C39.4804 42.8946 39.7348 43 40 43C40.2652 43 40.5196 42.8946 40.7071 42.7071C40.8946 42.5196 41 42.2652 41 42V41.5C41 40.125 42.3463 39 44 39C45.6538 39 47 40.125 47 41.5C47 42.875 45.6538 44 44 44C43.7348 44 43.4804 44.1054 43.2929 44.2929C43.1054 44.4804 43 44.7348 43 45V46C43 46.2652 43.1054 46.5196 43.2929 46.7071C43.4804 46.8946 43.7348 47 44 47C44.2652 47 44.5196 46.8946 44.7071 46.7071C44.8946 46.5196 45 46.2652 45 46V45.91C47.28 45.4913 49 43.6725 49 41.5C49 39.0188 46.7575 37 44 37ZM57 44C57 46.5712 56.2376 49.0846 54.8091 51.2224C53.3807 53.3603 51.3503 55.0265 48.9749 56.0104C46.5995 56.9944 43.9856 57.2518 41.4638 56.7502C38.9421 56.2486 36.6257 55.0105 34.8076 53.1924C32.9895 51.3743 31.7514 49.0579 31.2498 46.5362C30.7482 44.0144 31.0056 41.4006 31.9896 39.0251C32.9735 36.6497 34.6398 34.6194 36.7776 33.1909C38.9154 31.7624 41.4288 31 44 31C47.4467 31.0036 50.7512 32.3744 53.1884 34.8116C55.6256 37.2488 56.9964 40.5533 57 44ZM55 44C55 41.8244 54.3549 39.6977 53.1462 37.8887C51.9375 36.0798 50.2195 34.6699 48.2095 33.8373C46.1995 33.0048 43.9878 32.7869 41.854 33.2114C39.7202 33.6358 37.7602 34.6834 36.2218 36.2218C34.6835 37.7602 33.6358 39.7202 33.2114 41.854C32.7869 43.9878 33.0048 46.1995 33.8373 48.2095C34.6699 50.2195 36.0798 51.9375 37.8887 53.1462C39.6977 54.3549 41.8244 55 44 55C46.9164 54.9967 49.7123 53.8367 51.7745 51.7745C53.8367 49.7123 54.9967 46.9164 55 44Z" fill="#F5F5F5"/>
<defs>
<filter id="filter0_d_357_613" x="0.0284853" y="0.0284853" width="87.943" height="87.943" filterUnits="userSpaceOnUse" color-interpolation-filters="sRGB">
<feFlood flood-opacity="0" result="BackgroundImageFix"/>
<feColorMatrix in="SourceAlpha" type="matrix" values="0 0 0 0 0 0 0 0 0 0 0 0 0 0 0 0 0 0 127 0" result="hardAlpha"/>
<feOffset/>
<feGaussianBlur stdDeviation="5.18577"/>
<feColorMatrix type="matrix" values="0 0 0 0 0.176471 0 0 0 0 0.8 0 0 0 0 0.992157 0 0 0 1 0"/>
<feBlend mode="normal" in2="BackgroundImageFix" result="effect1_dropShadow_357_613"/>
<feBlend mode="normal" in="SourceGraphic" in2="effect1_dropShadow_357_613" result="shape"/>
</filter>
<linearGradient id="paint0_linear_357_613" x1="12" y1="44" x2="76" y2="44" gradientUnits="userSpaceOnUse">
<stop offset="0.15" stop-color="#2DCCFD"/>
<stop offset="1" stop-color="#FF01FF"/>
</linearGradient>
<linearGradient id="paint1_linear_357_613" x1="44" y1="17.6" x2="44" y2="70.4" gradientUnits="userSpaceOnUse">
<stop stop-color="#2DCCFD"/>
<stop offset="1" stop-color="#FF01FF"/>
</linearGradient>
</defs>
</svg>
