<svg width="88" height="88" viewBox="0 0 88 88" fill="none" xmlns="http://www.w3.org/2000/svg">
<g filter="url(#filter0_d_357_631)">
<rect x="11.2" y="11.2" width="65.6" height="65.6" rx="32.8" stroke="url(#paint0_linear_357_631)" stroke-width="1.6"/>
<circle cx="44" cy="44" r="27.2" fill="#121212" stroke="url(#paint1_linear_357_631)" stroke-width="1.6"/>
</g>
<path d="M42.0513 40.8162C42.0097 40.6917 41.9931 40.5601 42.0024 40.4291C42.0117 40.2981 42.0468 40.1702 42.1055 40.0527C42.1642 39.9353 42.2455 39.8305 42.3447 39.7445C42.444 39.6584 42.5592 39.5928 42.6838 39.5513L44.1838 39.0513C44.3341 39.0011 44.4942 38.9875 44.6508 39.0114C44.8075 39.0353 44.9562 39.096 45.0847 39.1887C45.2133 39.2814 45.318 39.4032 45.3902 39.5443C45.4624 39.6853 45.5 39.8415 45.5 40V45C45.5 45.2652 45.3946 45.5196 45.2071 45.7071C45.0196 45.8946 44.7652 46 44.5 46C44.2348 46 43.9804 45.8946 43.7929 45.7071C43.6054 45.5196 43.5 45.2652 43.5 45V41.3875L43.3162 41.4487C43.1917 41.4903 43.0601 41.5069 42.9291 41.4976C42.7981 41.4883 42.6702 41.4532 42.5527 41.3945C42.4353 41.3358 42.3305 41.2545 42.2445 41.1553C42.1584 41.056 42.0928 40.9408 42.0513 40.8162ZM59 54C59 54.2652 58.8946 54.5196 58.7071 54.7071C58.5196 54.8946 58.2652 55 58 55H30C29.7348 55 29.4804 54.8946 29.2929 54.7071C29.1054 54.5196 29 54.2652 29 54C29 53.7348 29.1054 53.4804 29.2929 53.2929C29.4804 53.1054 29.7348 53 30 53H31V41C31 40.4696 31.2107 39.9609 31.5858 39.5858C31.9609 39.2107 32.4696 39 33 39H38V35C38 34.4696 38.2107 33.9609 38.5858 33.5858C38.9609 33.2107 39.4696 33 40 33H48C48.5304 33 49.0391 33.2107 49.4142 33.5858C49.7893 33.9609 50 34.4696 50 35V44H55C55.5304 44 56.0391 44.2107 56.4142 44.5858C56.7893 44.9609 57 45.4696 57 46V53H58C58.2652 53 58.5196 53.1054 58.7071 53.2929C58.8946 53.4804 59 53.7348 59 54ZM50 46V53H55V46H50ZM40 53H48V35H40V53ZM33 53H38V41H33V53Z" fill="#F5F5F5"/>
<defs>
<filter id="filter0_d_357_631" x="0.0284853" y="0.0284853" width="87.943" height="87.943" filterUnits="userSpaceOnUse" color-interpolation-filters="sRGB">
<feFlood flood-opacity="0" result="BackgroundImageFix"/>
<feColorMatrix in="SourceAlpha" type="matrix" values="0 0 0 0 0 0 0 0 0 0 0 0 0 0 0 0 0 0 127 0" result="hardAlpha"/>
<feOffset/>
<feGaussianBlur stdDeviation="5.18577"/>
<feColorMatrix type="matrix" values="0 0 0 0 0.176471 0 0 0 0 0.8 0 0 0 0 0.992157 0 0 0 1 0"/>
<feBlend mode="normal" in2="BackgroundImageFix" result="effect1_dropShadow_357_631"/>
<feBlend mode="normal" in="SourceGraphic" in2="effect1_dropShadow_357_631" result="shape"/>
</filter>
<linearGradient id="paint0_linear_357_631" x1="12" y1="44" x2="76" y2="44" gradientUnits="userSpaceOnUse">
<stop offset="0.15" stop-color="#2DCCFD"/>
<stop offset="1" stop-color="#FF01FF"/>
</linearGradient>
<linearGradient id="paint1_linear_357_631" x1="44" y1="17.6" x2="44" y2="70.4" gradientUnits="userSpaceOnUse">
<stop stop-color="#2DCCFD"/>
<stop offset="1" stop-color="#FF01FF"/>
</linearGradient>
</defs>
</svg>
