<svg width="88" height="88" viewBox="0 0 88 88" fill="none" xmlns="http://www.w3.org/2000/svg">
<g filter="url(#filter0_d_357_511)">
<rect x="11.2" y="11.2" width="65.6" height="65.6" rx="32.8" stroke="url(#paint0_linear_357_511)" stroke-width="1.6"/>
<circle cx="44" cy="44" r="27.2" fill="#121212" stroke="url(#paint1_linear_357_511)" stroke-width="1.6"/>
</g>
<path d="M56 36H50V35C50 34.2044 49.6839 33.4413 49.1213 32.8787C48.5587 32.3161 47.7956 32 47 32H41C40.2044 32 39.4413 32.3161 38.8787 32.8787C38.3161 33.4413 38 34.2044 38 35V36H32C31.4696 36 30.9609 36.2107 30.5858 36.5858C30.2107 36.9609 30 37.4696 30 38V52C30 52.5304 30.2107 53.0391 30.5858 53.4142C30.9609 53.7893 31.4696 54 32 54H56C56.5304 54 57.0391 53.7893 57.4142 53.4142C57.7893 53.0391 58 52.5304 58 52V38C58 37.4696 57.7893 36.9609 57.4142 36.5858C57.0391 36.2107 56.5304 36 56 36ZM40 35C40 34.7348 40.1054 34.4804 40.2929 34.2929C40.4804 34.1054 40.7348 34 41 34H47C47.2652 34 47.5196 34.1054 47.7071 34.2929C47.8946 34.4804 48 34.7348 48 35V36H40V35ZM56 38V42H52V41C52 40.7348 51.8946 40.4804 51.7071 40.2929C51.5196 40.1054 51.2652 40 51 40C50.7348 40 50.4804 40.1054 50.2929 40.2929C50.1054 40.4804 50 40.7348 50 41V42H38V41C38 40.7348 37.8946 40.4804 37.7071 40.2929C37.5196 40.1054 37.2652 40 37 40C36.7348 40 36.4804 40.1054 36.2929 40.2929C36.1054 40.4804 36 40.7348 36 41V42H32V38H56ZM56 52H32V44H36V45C36 45.2652 36.1054 45.5196 36.2929 45.7071C36.4804 45.8946 36.7348 46 37 46C37.2652 46 37.5196 45.8946 37.7071 45.7071C37.8946 45.5196 38 45.2652 38 45V44H50V45C50 45.2652 50.1054 45.5196 50.2929 45.7071C50.4804 45.8946 50.7348 46 51 46C51.2652 46 51.5196 45.8946 51.7071 45.7071C51.8946 45.5196 52 45.2652 52 45V44H56V52Z" fill="#F5F5F5"/>
<defs>
<filter id="filter0_d_357_511" x="0.0284853" y="0.0284853" width="87.943" height="87.943" filterUnits="userSpaceOnUse" color-interpolation-filters="sRGB">
<feFlood flood-opacity="0" result="BackgroundImageFix"/>
<feColorMatrix in="SourceAlpha" type="matrix" values="0 0 0 0 0 0 0 0 0 0 0 0 0 0 0 0 0 0 127 0" result="hardAlpha"/>
<feOffset/>
<feGaussianBlur stdDeviation="5.18577"/>
<feColorMatrix type="matrix" values="0 0 0 0 0.176471 0 0 0 0 0.8 0 0 0 0 0.992157 0 0 0 1 0"/>
<feBlend mode="normal" in2="BackgroundImageFix" result="effect1_dropShadow_357_511"/>
<feBlend mode="normal" in="SourceGraphic" in2="effect1_dropShadow_357_511" result="shape"/>
</filter>
<linearGradient id="paint0_linear_357_511" x1="12" y1="44" x2="76" y2="44" gradientUnits="userSpaceOnUse">
<stop offset="0.15" stop-color="#2DCCFD"/>
<stop offset="1" stop-color="#FF01FF"/>
</linearGradient>
<linearGradient id="paint1_linear_357_511" x1="44" y1="17.6" x2="44" y2="70.4" gradientUnits="userSpaceOnUse">
<stop stop-color="#2DCCFD"/>
<stop offset="1" stop-color="#FF01FF"/>
</linearGradient>
</defs>
</svg>
