<svg width="88" height="88" viewBox="0 0 88 88" fill="none" xmlns="http://www.w3.org/2000/svg">
<g filter="url(#filter0_d_357_122)">
<rect x="11.2" y="11.2" width="65.6" height="65.6" rx="32.8" stroke="url(#paint0_linear_357_122)" stroke-width="1.6"/>
<circle cx="44" cy="44" r="27.2" fill="#121212" stroke="url(#paint1_linear_357_122)" stroke-width="1.6"/>
</g>
<path d="M56.865 54.5001C54.9613 51.2089 52.0275 48.8489 48.6038 47.7301C50.2973 46.7219 51.6131 45.1857 52.349 43.3574C53.085 41.529 53.2004 39.5096 52.6776 37.6093C52.1548 35.709 51.0226 34.0328 49.455 32.8383C47.8874 31.6437 45.9709 30.9967 44 30.9967C42.0291 30.9967 40.1127 31.6437 38.5451 32.8383C36.9774 34.0328 35.8453 35.709 35.3225 37.6093C34.7996 39.5096 34.9151 41.529 35.651 43.3574C36.387 45.1857 37.7027 46.7219 39.3963 47.7301C35.9725 48.8476 33.0388 51.2076 31.135 54.5001C31.0652 54.6139 31.0189 54.7406 30.9988 54.8726C30.9788 55.0047 30.9854 55.1394 31.0182 55.2688C31.051 55.3982 31.1095 55.5198 31.19 55.6263C31.2706 55.7328 31.3717 55.822 31.4873 55.8888C31.6029 55.9556 31.7308 55.9986 31.8633 56.0152C31.9958 56.0318 32.1303 56.0216 32.2588 55.9854C32.3873 55.9492 32.5073 55.8876 32.6116 55.8042C32.716 55.7209 32.8026 55.6175 32.8663 55.5001C35.2213 51.4301 39.3838 49.0001 44 49.0001C48.6163 49.0001 52.7788 51.4301 55.1338 55.5001C55.1975 55.6175 55.2841 55.7209 55.3884 55.8042C55.4928 55.8876 55.6127 55.9492 55.7413 55.9854C55.8698 56.0216 56.0043 56.0318 56.1368 56.0152C56.2693 55.9986 56.3971 55.9556 56.5128 55.8888C56.6284 55.822 56.7295 55.7328 56.81 55.6263C56.8906 55.5198 56.949 55.3982 56.9819 55.2688C57.0147 55.1394 57.0213 55.0047 57.0012 54.8726C56.9812 54.7406 56.9348 54.6139 56.865 54.5001ZM37 40.0001C37 38.6156 37.4106 37.2623 38.1797 36.1111C38.9489 34.96 40.0422 34.0628 41.3212 33.5329C42.6003 33.0031 44.0078 32.8645 45.3657 33.1346C46.7235 33.4047 47.9708 34.0714 48.9498 35.0504C49.9287 36.0293 50.5954 37.2766 50.8655 38.6345C51.1356 39.9923 50.997 41.3998 50.4672 42.6789C49.9374 43.958 49.0402 45.0512 47.889 45.8204C46.7379 46.5896 45.3845 47.0001 44 47.0001C42.1441 46.9981 40.3648 46.26 39.0525 44.9477C37.7402 43.6353 37.002 41.856 37 40.0001Z" fill="#F5F5F5"/>
<defs>
<filter id="filter0_d_357_122" x="0.0284853" y="0.0284853" width="87.943" height="87.943" filterUnits="userSpaceOnUse" color-interpolation-filters="sRGB">
<feFlood flood-opacity="0" result="BackgroundImageFix"/>
<feColorMatrix in="SourceAlpha" type="matrix" values="0 0 0 0 0 0 0 0 0 0 0 0 0 0 0 0 0 0 127 0" result="hardAlpha"/>
<feOffset/>
<feGaussianBlur stdDeviation="5.18577"/>
<feColorMatrix type="matrix" values="0 0 0 0 0.176471 0 0 0 0 0.8 0 0 0 0 0.992157 0 0 0 1 0"/>
<feBlend mode="normal" in2="BackgroundImageFix" result="effect1_dropShadow_357_122"/>
<feBlend mode="normal" in="SourceGraphic" in2="effect1_dropShadow_357_122" result="shape"/>
</filter>
<linearGradient id="paint0_linear_357_122" x1="12" y1="44" x2="76" y2="44" gradientUnits="userSpaceOnUse">
<stop offset="0.15" stop-color="#2DCCFD"/>
<stop offset="1" stop-color="#FF01FF"/>
</linearGradient>
<linearGradient id="paint1_linear_357_122" x1="44" y1="17.6" x2="44" y2="70.4" gradientUnits="userSpaceOnUse">
<stop stop-color="#2DCCFD"/>
<stop offset="1" stop-color="#FF01FF"/>
</linearGradient>
</defs>
</svg>
