<svg width="88" height="88" viewBox="0 0 88 88" fill="none" xmlns="http://www.w3.org/2000/svg">
<g filter="url(#filter0_d_357_115)">
<rect x="11.2" y="11.2" width="65.6" height="65.6" rx="32.8" stroke="url(#paint0_linear_357_115)" stroke-width="1.6"/>
<circle cx="44" cy="44" r="27.2" fill="#121212" stroke="url(#paint1_linear_357_115)" stroke-width="1.6"/>
</g>
<path d="M58.6 46.8001C58.495 46.8789 58.3754 46.9362 58.2482 46.9688C58.121 47.0014 57.9886 47.0086 57.8586 46.99C57.7286 46.9715 57.6035 46.9275 57.4905 46.8606C57.3775 46.7936 57.2788 46.7051 57.2 46.6001C56.5973 45.7899 55.8127 45.1326 54.9096 44.681C54.0064 44.2294 53.0098 43.9962 52 44.0001C51.8034 44.0001 51.6111 43.9421 51.4472 43.8333C51.2834 43.7246 51.1552 43.57 51.0788 43.3888C51.0269 43.2658 51.0001 43.1336 51.0001 43.0001C51.0001 42.8665 51.0269 42.7344 51.0788 42.6113C51.1552 42.4302 51.2834 42.2755 51.4472 42.1668C51.6111 42.0581 51.8034 42.0001 52 42.0001C52.5611 42 53.1109 41.8426 53.5871 41.5458C54.0632 41.2489 54.4465 40.8244 54.6935 40.3206C54.9405 39.8168 55.0412 39.2539 54.9843 38.6957C54.9273 38.1375 54.715 37.6064 54.3714 37.1629C54.0278 36.7193 53.5666 36.381 53.0404 36.1864C52.5141 35.9917 51.9439 35.9486 51.3943 36.0618C50.8448 36.175 50.338 36.4401 49.9315 36.8269C49.5251 37.2138 49.2353 37.7068 49.095 38.2501C49.0622 38.3773 49.0046 38.4968 48.9256 38.6018C48.8466 38.7067 48.7477 38.7951 48.6345 38.8619C48.5213 38.9286 48.3961 38.9724 48.266 38.9908C48.1359 39.0091 48.0035 39.0017 47.8763 38.9688C47.749 38.936 47.6295 38.8784 47.5246 38.7994C47.4196 38.7204 47.3312 38.6215 47.2645 38.5083C47.1977 38.3951 47.1539 38.2699 47.1356 38.1398C47.1172 38.0097 47.1247 37.8773 47.1575 37.7501C47.3522 36.9967 47.72 36.2992 48.2318 35.713C48.7435 35.1268 49.3849 34.6682 50.1051 34.3735C50.8252 34.0789 51.6042 33.9564 52.3801 34.0157C53.1559 34.0751 53.9072 34.3148 54.5741 34.7156C55.241 35.1164 55.8052 35.6674 56.2217 36.3246C56.6383 36.9818 56.8957 37.7272 56.9734 38.5014C57.0512 39.2756 56.9472 40.0573 56.6697 40.7843C56.3922 41.5112 55.9489 42.1634 55.375 42.6888C56.7348 43.2776 57.9168 44.2118 58.8038 45.3988C58.8826 45.5042 58.9398 45.624 58.9722 45.7515C59.0046 45.8789 59.0115 46.0116 58.9926 46.1417C58.9737 46.2719 58.9293 46.397 58.8619 46.51C58.7945 46.623 58.7055 46.7216 58.6 46.8001ZM51.865 54.5001C51.9374 54.6139 51.986 54.7412 52.0078 54.8743C52.0297 55.0073 52.0245 55.1435 51.9924 55.2745C51.9603 55.4055 51.902 55.5286 51.8211 55.6365C51.7402 55.7444 51.6383 55.8348 51.5215 55.9023C51.4048 55.9698 51.2756 56.013 51.1417 56.0293C51.0078 56.0455 50.872 56.0345 50.7425 55.997C50.6129 55.9594 50.4924 55.896 50.388 55.8106C50.2836 55.7252 50.1975 55.6196 50.135 55.5001C49.5051 54.4334 48.6079 53.5494 47.532 52.9353C46.4562 52.3212 45.2388 51.9983 44 51.9983C42.7612 51.9983 41.5438 52.3212 40.468 52.9353C39.3921 53.5494 38.495 54.4334 37.865 55.5001C37.8025 55.6196 37.7165 55.7252 37.6121 55.8106C37.5077 55.896 37.3871 55.9594 37.2576 55.997C37.128 56.0345 36.9922 56.0455 36.8583 56.0293C36.7245 56.013 36.5952 55.9698 36.4785 55.9023C36.3617 55.8348 36.2598 55.7444 36.1789 55.6365C36.098 55.5286 36.0397 55.4055 36.0076 55.2745C35.9756 55.1435 35.9703 55.0073 35.9922 54.8743C36.0141 54.7412 36.0627 54.6139 36.135 54.5001C37.1045 52.8343 38.5828 51.5234 40.3525 50.7601C39.3567 49.9976 38.6248 48.9423 38.2598 47.7424C37.8947 46.5425 37.9149 45.2583 38.3174 44.0705C38.7199 42.8826 39.4846 41.8507 40.5038 41.1199C41.5231 40.3891 42.7458 39.9961 44 39.9961C45.2542 39.9961 46.4769 40.3891 47.4962 41.1199C48.5155 41.8507 49.2801 42.8826 49.6826 44.0705C50.0851 45.2583 50.1053 46.5425 49.7403 47.7424C49.3752 48.9423 48.6434 49.9976 47.6475 50.7601C49.4173 51.5234 50.8955 52.8343 51.865 54.5001ZM44 50.0001C44.7911 50.0001 45.5645 49.7655 46.2223 49.326C46.8801 48.8864 47.3928 48.2617 47.6955 47.5308C47.9983 46.7999 48.0775 45.9956 47.9232 45.2197C47.7688 44.4438 47.3878 43.7311 46.8284 43.1717C46.269 42.6122 45.5563 42.2313 44.7804 42.0769C44.0045 41.9226 43.2002 42.0018 42.4693 42.3046C41.7384 42.6073 41.1137 43.12 40.6741 43.7778C40.2346 44.4356 40 45.209 40 46.0001C40 47.0609 40.4214 48.0784 41.1716 48.8285C41.9217 49.5787 42.9391 50.0001 44 50.0001ZM37 43.0001C37 42.7349 36.8947 42.4805 36.7071 42.293C36.5196 42.1054 36.2652 42.0001 36 42.0001C35.4389 42 34.8891 41.8426 34.413 41.5458C33.9369 41.2489 33.5535 40.8244 33.3066 40.3206C33.0596 39.8168 32.9588 39.2539 33.0158 38.6957C33.0727 38.1375 33.285 37.6064 33.6286 37.1629C33.9723 36.7193 34.4334 36.381 34.9596 36.1864C35.4859 35.9917 36.0562 35.9486 36.6057 36.0618C37.1553 36.175 37.662 36.4401 38.0685 36.8269C38.4749 37.2138 38.7647 37.7068 38.905 38.2501C38.9713 38.507 39.137 38.7271 39.3655 38.8619C39.5941 38.9967 39.8668 39.0351 40.1238 38.9688C40.3807 38.9025 40.6008 38.7369 40.7355 38.5083C40.8703 38.2798 40.9088 38.007 40.8425 37.7501C40.6478 36.9967 40.28 36.2992 39.7683 35.713C39.2566 35.1268 38.6151 34.6682 37.895 34.3735C37.1748 34.0789 36.3958 33.9564 35.62 34.0157C34.8441 34.0751 34.0928 34.3148 33.4259 34.7156C32.759 35.1164 32.1948 35.6674 31.7783 36.3246C31.3618 36.9818 31.1044 37.7272 31.0266 38.5014C30.9488 39.2756 31.0528 40.0573 31.3303 40.7843C31.6078 41.5112 32.0511 42.1634 32.625 42.6888C31.2666 43.2781 30.0859 44.2124 29.2 45.3988C29.0407 45.611 28.9722 45.8778 29.0096 46.1404C29.047 46.4031 29.1872 46.6402 29.3994 46.7995C29.6116 46.9588 29.8783 47.0272 30.141 46.9898C30.4037 46.9525 30.6407 46.8123 30.8 46.6001C31.4027 45.7899 32.1873 45.1326 33.0905 44.681C33.9936 44.2294 34.9902 43.9962 36 44.0001C36.2652 44.0001 36.5196 43.8947 36.7071 43.7072C36.8947 43.5197 37 43.2653 37 43.0001Z" fill="#F5F5F5"/>
<defs>
<filter id="filter0_d_357_115" x="0.0284853" y="0.0284853" width="87.943" height="87.943" filterUnits="userSpaceOnUse" color-interpolation-filters="sRGB">
<feFlood flood-opacity="0" result="BackgroundImageFix"/>
<feColorMatrix in="SourceAlpha" type="matrix" values="0 0 0 0 0 0 0 0 0 0 0 0 0 0 0 0 0 0 127 0" result="hardAlpha"/>
<feOffset/>
<feGaussianBlur stdDeviation="5.18577"/>
<feColorMatrix type="matrix" values="0 0 0 0 0.176471 0 0 0 0 0.8 0 0 0 0 0.992157 0 0 0 1 0"/>
<feBlend mode="normal" in2="BackgroundImageFix" result="effect1_dropShadow_357_115"/>
<feBlend mode="normal" in="SourceGraphic" in2="effect1_dropShadow_357_115" result="shape"/>
</filter>
<linearGradient id="paint0_linear_357_115" x1="12" y1="44" x2="76" y2="44" gradientUnits="userSpaceOnUse">
<stop offset="0.15" stop-color="#2DCCFD"/>
<stop offset="1" stop-color="#FF01FF"/>
</linearGradient>
<linearGradient id="paint1_linear_357_115" x1="44" y1="17.6" x2="44" y2="70.4" gradientUnits="userSpaceOnUse">
<stop stop-color="#2DCCFD"/>
<stop offset="1" stop-color="#FF01FF"/>
</linearGradient>
</defs>
</svg>
